<svg width="423" height="220" viewBox="0 0 423 220" fill="none" xmlns="http://www.w3.org/2000/svg">
<g clip-path="url(#clip0_714_10435)">
<path d="M92.7418 199.795C92.7418 199.795 90.4773 193.603 87.5771 185.557H87.4495V185.2C84.7645 177.754 81.5616 168.801 79.1144 161.72V185.48H69.3555V151.759H75.7864C75.5361 150.957 75.376 150.347 75.2984 149.968C74.8855 147.969 75.3735 146.721 76.0891 145.669H47.7383V218.106H101.885V216.728C95.8221 213.843 94.0931 203.434 92.7418 199.795ZM61.2131 185.557H51.4542V151.836H61.2131V185.557Z" stroke="#111111" stroke-width="1.50374" stroke-linecap="round" stroke-linejoin="round"/>
<path d="M79.1113 191.31V188.152H69.3624V191.31H79.1113Z" fill="#6D6D6D"/>
<path d="M87.4492 191.382V188.225H88.3751L89.2434 191.382H87.4492Z" fill="#6D6D6D"/>
<path d="M61.21 191.382V188.225H51.4611V191.382H61.21Z" fill="#6D6D6D"/>
<path d="M74.0511 209.002C75.9416 209.002 77.4742 207.472 77.4742 205.585C77.4742 203.698 75.9416 202.168 74.0511 202.168C72.1605 202.168 70.6279 203.698 70.6279 205.585C70.6279 207.472 72.1605 209.002 74.0511 209.002Z" stroke="#111111" stroke-width="1.50374" stroke-linecap="round" stroke-linejoin="round"/>
<path d="M94.9358 207.628C94.5641 208.156 94.0505 208.567 93.4543 208.816C92.8581 209.064 92.2037 209.139 91.5667 209.032C90.9296 208.924 90.336 208.639 89.8544 208.21C89.3728 207.78 89.0229 207.223 88.8451 206.603C88.6673 205.983 88.6689 205.325 88.8497 204.706C89.0304 204.087 89.383 203.531 89.8667 203.104C90.3504 202.676 90.9453 202.394 91.5829 202.29C92.2204 202.186 92.8745 202.264 93.4695 202.515" stroke="#111111" stroke-width="1.50374" stroke-linecap="round" stroke-linejoin="round"/>
<path d="M56.1477 209.077C58.0383 209.077 59.5709 207.547 59.5709 205.66C59.5709 203.773 58.0383 202.243 56.1477 202.243C54.2572 202.243 52.7246 203.773 52.7246 205.66C52.7246 207.547 54.2572 209.077 56.1477 209.077Z" stroke="#111111" stroke-width="1.50374" stroke-linecap="round" stroke-linejoin="round"/>
<path d="M79.1151 162.082V185.492H69.3662V151.763H75.5418" stroke="#111111" stroke-width="1.50374" stroke-linecap="round" stroke-linejoin="round"/>
<path d="M78.4492 159.786H70.3018" stroke="#111111" stroke-width="1.50374" stroke-linecap="round" stroke-linejoin="round"/>
<path d="M78.4492 163.5H70.3018" stroke="#111111" stroke-width="1.50374" stroke-linecap="round" stroke-linejoin="round"/>
<path d="M78.4492 167.215H70.3018" stroke="#111111" stroke-width="1.50374" stroke-linecap="round" stroke-linejoin="round"/>
<path d="M61.21 185.564V151.838H51.4611V185.564H61.21Z" stroke="#111111" stroke-width="1.50374" stroke-linecap="round" stroke-linejoin="round"/>
<path d="M60.5517 175.313H52.1641" stroke="#111111" stroke-width="1.50374" stroke-linecap="round" stroke-linejoin="round"/>
<path d="M60.5517 156.147H52.1641" stroke="#111111" stroke-width="1.50374" stroke-linecap="round" stroke-linejoin="round"/>
<path d="M60.5517 179.027H52.1641" stroke="#111111" stroke-width="1.50374" stroke-linecap="round" stroke-linejoin="round"/>
<path d="M60.5517 182.741H52.1641" stroke="#111111" stroke-width="1.50374" stroke-linecap="round" stroke-linejoin="round"/>
<path d="M85.3762 117.871C84.9238 116.599 84.2532 115.416 83.3944 114.374C80.2866 110.594 80.249 108.194 78.4974 106.383C76.7459 104.572 73.9658 105.399 76.4681 111.541C76.8635 112.51 77.223 113.39 77.5466 114.181" stroke="#111111" stroke-width="1.50374" stroke-linecap="round" stroke-linejoin="round"/>
<path d="M72.4922 113.742C75.0395 113.779 83.5022 114.416 88.1515 121.343" stroke="#111111" stroke-width="1.50374" stroke-linecap="round" stroke-linejoin="round"/>
<path d="M72.6328 119.171C78.0127 118.037 91.45 116.853 94.0874 132.41" stroke="#111111" stroke-width="1.50374" stroke-linecap="round" stroke-linejoin="round"/>
<path d="M80.9304 137.071C80.1972 134.526 79.3314 132.113 78.3881 130.642C75.6206 126.326 69.4399 126.645 69.4399 126.645C69.4399 126.645 53.7256 112.735 51.451 110.222C49.1764 107.709 50.0472 105.314 54.1134 108.106C56.2129 109.548 60.4893 112.602 64.1226 115.228" stroke="#111111" stroke-width="1.50374" stroke-linecap="round" stroke-linejoin="round"/>
<path d="M69.1726 126.026C69.1726 126.026 61.1027 108.129 59.8941 104.757C58.6855 101.385 60.3195 99.6063 63.0645 104.08C64.2556 106.023 66.1098 109.076 67.8189 111.916" stroke="#111111" stroke-width="1.50374" stroke-linecap="round" stroke-linejoin="round"/>
<path d="M68.4091 124.594C68.4091 124.594 67.7661 109.243 67.7686 106.268C67.7686 101.364 70.7188 99.9707 71.4795 106.58C71.9799 110.994 72.5479 119.129 72.5479 119.129" stroke="#111111" stroke-width="1.50374" stroke-linecap="round" stroke-linejoin="round"/>
<path d="M300.785 118.152C301.239 116.777 301.944 115.497 302.865 114.378C305.975 110.596 306.007 108.193 307.767 106.385C309.526 104.576 312.296 105.401 309.793 111.543C309.371 112.587 308.988 113.528 308.642 114.365" stroke="#111111" stroke-width="1.50374" stroke-linecap="round" stroke-linejoin="round"/>
<path d="M313.98 113.739C311.756 113.739 303.13 114.198 298.301 121.065" stroke="#111111" stroke-width="1.50374" stroke-linecap="round" stroke-linejoin="round"/>
<path d="M313.569 119.16C308.151 118.031 294.802 116.912 292.172 132.398" stroke="#111111" stroke-width="1.50374" stroke-linecap="round" stroke-linejoin="round"/>
<path d="M305.514 136.432C306.207 134.127 307.015 131.986 307.871 130.637C310.638 126.321 316.819 126.641 316.819 126.641C316.819 126.641 332.528 112.733 334.808 110.22C337.087 107.707 336.212 105.312 332.145 108.104C329.991 109.583 325.547 112.765 321.846 115.428" stroke="#111111" stroke-width="1.50374" stroke-linecap="round" stroke-linejoin="round"/>
<path d="M317.088 126.026C317.088 126.026 325.158 108.129 326.366 104.757C327.575 101.385 325.941 99.6063 323.198 104.08C321.982 106.058 320.081 109.193 318.339 112.073" stroke="#111111" stroke-width="1.50374" stroke-linecap="round" stroke-linejoin="round"/>
<path d="M318.336 112.108C318.426 109.492 318.493 107.232 318.491 106.268C318.491 101.364 315.541 99.9707 314.78 106.58C314.279 110.994 313.714 119.129 313.714 119.129" stroke="#111111" stroke-width="1.50374" stroke-linecap="round" stroke-linejoin="round"/>
<path d="M317.851 124.595C317.851 124.595 318.146 117.576 318.337 112.105" stroke="#111111" stroke-width="1.50374" stroke-linecap="round" stroke-linejoin="round"/>
<path d="M159.141 98.8169C146.725 105.009 142.806 114.718 144.11 124.832H143.99C143.99 124.832 127.66 124.615 118.512 151.744C115.832 145.449 113.112 139.289 111.943 137.361C109.283 132.985 100.203 134.951 97.8304 131.911C95.4582 128.871 94.6174 127.914 94.6174 127.914C94.6174 127.914 87.561 136.322 78.748 135.38C78.748 135.38 78.2475 136.894 78.5828 140.716C78.9181 144.537 74.2614 144.975 75.2998 149.973C76.3383 154.971 92.7332 199.795 92.7332 199.795C94.2796 203.961 96.3215 216.997 104.794 217.462C104.817 217.523 104.857 217.576 104.91 217.614C104.962 217.653 105.025 217.675 105.089 217.679C118.524 217.642 282.804 217.779 282.804 217.779C282.804 217.779 282.819 217.602 282.837 217.267C290.156 215.544 292.053 203.724 293.511 199.795C293.511 199.795 309.909 154.971 310.945 149.973C311.981 144.975 307.331 144.537 307.664 140.716C307.997 136.894 307.497 135.38 307.497 135.38C298.694 136.31 291.635 127.917 291.635 127.917C291.635 127.917 290.794 128.866 288.424 131.913C286.055 134.961 281.555 131.519 278.898 135.895C276.751 139.432 269.139 157.968 266.294 164.95C257.661 139.319 246.554 126.296 228.432 123.019C227.243 115.83 224.073 107.669 216.048 101.739" stroke="#111111" stroke-width="1.50374" stroke-linecap="round" stroke-linejoin="round"/>
<path d="M307.296 140.156C307.924 136.159 307.599 134.621 307.599 134.621C299.556 136.357 292.124 127.229 292.124 127.229C292.124 127.229 291.281 128.289 288.872 131.656C288.185 132.682 287.13 133.407 285.924 133.679C289.262 144.525 303.798 145.918 309.248 146.048C308.842 143.683 306.82 143.191 307.296 140.156Z" fill="#111111"/>
<path d="M78.4837 140.136C77.8556 136.139 78.6613 134.621 78.6613 134.621C86.7062 136.357 94.1379 127.229 94.1379 127.229C94.1379 127.229 95.3491 127.364 97.7537 130.726C98.7221 132.083 100.386 133.224 101.39 133.502C98.0515 144.345 81.3338 145.816 75.8838 145.948C76.2942 143.59 78.9591 143.173 78.4837 140.136Z" fill="#111111"/>
<path d="M144.704 124.333C139.814 125.332 134.062 127.555 129.58 132.518C133.751 138.543 149.003 159.375 175.872 163.741C175.851 163.555 175.811 163.372 175.752 163.194C160.856 157.077 146.278 140.116 144.704 124.333Z" fill="#111111"/>
<path d="M227.442 121.562C228.372 127.113 228.117 132.096 227.992 135.038C227.579 144.765 224.003 151.482 221.256 156.323L220.73 159.802C232.078 157.132 241.512 139.07 243.031 128.734C239.002 126.543 237.311 123.556 227.442 121.562Z" fill="#111111"/>
<path d="M175.562 156.747C175.562 156.747 186.346 175.321 187.465 187.053" stroke="#111111" stroke-width="2.00498" stroke-linecap="round" stroke-linejoin="round"/>
<path d="M219.263 156.284C219.263 156.284 214.709 174.561 215.942 186.283" stroke="#111111" stroke-width="2.00498" stroke-linecap="round" stroke-linejoin="round"/>
<path d="M118.221 150.759L129.916 178.086" stroke="#111111" stroke-width="1.50374" stroke-linecap="round" stroke-linejoin="round"/>
<path d="M266.693 164.192L258.724 179.736" stroke="#111111" stroke-width="1.50374" stroke-linecap="round" stroke-linejoin="round"/>
<path d="M153.212 198.019C153.212 198.019 152.211 218.356 141.562 217.881" stroke="#111111" stroke-width="1.50374" stroke-linecap="round" stroke-linejoin="round"/>
<path d="M212.785 164.548C218.513 147.627 216.288 126.393 212.419 123.316C211.641 122.699 209.302 122.229 206.059 121.872C204.702 121.724 203.641 122.709 203.641 122.709L208.451 123.458C206.306 143.97 197.136 150.435 197.136 150.435C182.189 133.202 165.477 121.65 165.477 121.65L166.678 120.823L165.827 120.835L158.147 123.475C158.147 123.475 187.387 150.592 196.045 200.072C197.403 207.83 198.322 213.927 198.932 218.711L213.738 217.844C211.519 200.676 209.156 175.288 212.785 164.548Z" fill="#111111"/>
<path d="M172.234 110.667L171.858 117.258L165.478 121.65C165.478 121.65 182.19 133.202 197.136 150.457C197.136 150.457 206.307 143.985 208.452 123.48L203.642 122.731" stroke="#111111" stroke-width="1.50374" stroke-linecap="round" stroke-linejoin="round"/>
<path d="M163.932 86.9746C161.347 87.709 156.03 90.0744 158.177 96.8061C160.036 102.634 165.223 101.724 168.494 100.46" stroke="#111111" stroke-width="1.50374" stroke-linecap="round" stroke-linejoin="round"/>
<path d="M212.69 62.7549C215.17 72.7762 215.891 83.7368 215.858 92.202L212.69 62.7549Z" fill="white"/>
<path d="M212.69 62.7549C215.17 72.7762 215.891 83.7368 215.858 92.202" stroke="#111111" stroke-width="1.50374" stroke-linecap="round" stroke-linejoin="round"/>
<path d="M169.262 84.5391C171.084 86.0103 176.559 95.0925 178.14 99.4412C178.14 99.4412 188.542 94.4031 204.034 92.3423C204.034 92.3423 212.516 91.5205 216.007 92.155C216.007 92.155 217.091 108.089 211.173 117.103C205.255 126.118 190.484 125.534 183.115 121.4C175.745 117.266 174.357 115.05 172.175 109.957C169.993 104.864 163.574 85.6731 163.574 85.6731L169.262 84.5391Z" stroke="#111111" stroke-width="1.50374" stroke-linecap="round" stroke-linejoin="round"/>
<path d="M165.239 88.4408C165.239 88.4408 159.772 81.6841 157.127 74.3104C154.625 67.3789 157.062 59.5282 163.205 55.5766C168.345 52.2719 172.619 53.9005 172.619 53.9005C172.619 53.9005 165.717 44.5936 173.392 34.7745C174.723 33.0641 176.393 31.6456 178.298 30.6074C180.202 29.5691 182.301 28.9334 184.462 28.7397C195.079 27.828 199.373 36.5255 199.373 36.5255C199.373 36.5255 208.324 14.0974 232.959 23.9014C235.444 24.9005 238.476 28.0978 240.008 30.3159C249.296 43.7693 225.927 63.6921 212.918 66.5646C198.63 69.7169 189.897 68.2682 184.837 65.2208C188.538 66.9293 187.117 89.3225 165.239 88.4408Z" fill="#111111"/>
<path d="M202.74 82.3535L205.883 95.9768L201.842 96.8935" stroke="#111111" stroke-width="2.00498" stroke-linecap="round" stroke-linejoin="round"/>
<path d="M208.103 87.8213C208.874 87.7353 209.389 86.6854 209.253 85.4762C209.118 84.267 208.383 83.3564 207.613 83.4424C206.842 83.5284 206.328 84.5784 206.463 85.7876C206.598 86.9968 207.333 87.9073 208.103 87.8213Z" fill="#111111"/>
<path d="M194.762 88.7085C195.532 88.6225 196.047 87.5726 195.911 86.3634C195.776 85.1542 195.042 84.2436 194.271 84.3296C193.501 84.4156 192.986 85.4656 193.121 86.6748C193.257 87.884 193.991 88.7945 194.762 88.7085Z" fill="#111111"/>
<path d="M189.569 82.9702C189.569 82.9702 195.277 82.6304 195.204 78.8237" stroke="#111111" stroke-width="2.00498" stroke-linecap="round" stroke-linejoin="round"/>
<path d="M205.996 73.3761C205.996 73.3761 209.75 71.8999 211.081 74.9922" stroke="#111111" stroke-width="2.00498" stroke-linecap="round" stroke-linejoin="round"/>
<path d="M201.502 102.968C199.498 103.334 197.459 103.469 195.424 103.37C194.173 103.318 193.224 104.089 193.595 104.869C194.243 106.238 195.792 107.866 199.47 107.439C203.093 107.009 203.817 105.338 203.809 104.052C203.804 103.278 202.635 102.746 201.502 102.968Z" stroke="#111111" stroke-width="1.50374" stroke-linecap="round" stroke-linejoin="round"/>
<path d="M234.908 186.896C234.379 186.896 233.863 187.053 233.423 187.346C232.984 187.639 232.641 188.056 232.439 188.543C232.237 189.031 232.184 189.567 232.287 190.085C232.39 190.602 232.644 191.077 233.018 191.451C233.392 191.824 233.868 192.078 234.386 192.181C234.905 192.284 235.442 192.231 235.93 192.029C236.419 191.827 236.836 191.485 237.13 191.046C237.423 190.608 237.58 190.092 237.58 189.564C237.58 188.857 237.298 188.179 236.797 187.679C236.296 187.178 235.616 186.897 234.908 186.896Z" fill="#111111"/>
<path d="M226.302 205.663C225.594 205.663 224.914 205.944 224.413 206.444C223.911 206.944 223.63 207.623 223.63 208.33C223.63 209.038 223.911 209.716 224.413 210.217C224.914 210.717 225.594 210.998 226.302 210.998H226.315C227.024 210.996 227.703 210.714 228.203 210.212C228.703 209.711 228.983 209.032 228.981 208.324C228.979 207.617 228.696 206.939 228.194 206.44C227.691 205.94 227.011 205.661 226.302 205.663Z" fill="#111111"/>
<path d="M295 181.169H222.433V199.296L209.116 199.518L209.204 217.645L286.111 217.28L286.024 199.296H295.007L295 181.169ZM229.267 211.258C228.884 211.651 228.426 211.963 227.92 212.178C227.415 212.392 226.871 212.504 226.322 212.507H226.302C225.195 212.51 224.132 212.073 223.348 211.294C222.563 210.514 222.121 209.456 222.118 208.351C222.115 207.246 222.553 206.185 223.333 205.401C224.114 204.618 225.175 204.177 226.282 204.174H226.302C227.123 204.177 227.924 204.421 228.607 204.877C229.289 205.332 229.822 205.978 230.139 206.734C230.455 207.49 230.541 208.323 230.386 209.127C230.231 209.932 229.842 210.673 229.267 211.258ZM234.907 193.726C234.082 193.726 233.275 193.481 232.588 193.023C231.902 192.566 231.367 191.915 231.051 191.154C230.735 190.392 230.653 189.555 230.814 188.746C230.975 187.938 231.372 187.196 231.956 186.613C232.54 186.03 233.283 185.634 234.093 185.473C234.903 185.312 235.742 185.395 236.504 185.71C237.267 186.025 237.919 186.559 238.378 187.244C238.836 187.93 239.081 188.735 239.081 189.559C239.081 190.665 238.641 191.725 237.859 192.507C237.076 193.289 236.015 193.729 234.907 193.731V193.726ZM246.545 212.837L246.498 203.095L249.661 203.08L249.706 212.822L246.545 212.837ZM250.461 184.878H253.624V194.62H250.461V184.878ZM251.122 212.814L251.074 203.073L284.855 202.913L284.903 212.654L251.122 212.814ZM288.824 194.61H255.043V184.868H288.824V194.61Z" fill="#111111"/>
<path d="M276.864 211.583L276.829 204.352" stroke="#6D6D6D" stroke-width="1.50374" stroke-linecap="round" stroke-linejoin="round"/>
<path d="M273.143 211.6L273.108 204.369" stroke="#6D6D6D" stroke-width="1.50374" stroke-linecap="round" stroke-linejoin="round"/>
<path d="M269.423 211.617L269.388 204.386" stroke="#6D6D6D" stroke-width="1.50374" stroke-linecap="round" stroke-linejoin="round"/>
<path d="M265.308 193.391V186.16" stroke="#6D6D6D" stroke-width="1.50374" stroke-linecap="round" stroke-linejoin="round"/>
<path d="M284.507 193.391V186.16" stroke="#6D6D6D" stroke-width="1.50374" stroke-linecap="round" stroke-linejoin="round"/>
<path d="M261.586 193.391V186.16" stroke="#6D6D6D" stroke-width="1.50374" stroke-linecap="round" stroke-linejoin="round"/>
<path d="M257.865 193.391V186.16" stroke="#6D6D6D" stroke-width="1.50374" stroke-linecap="round" stroke-linejoin="round"/>
<path d="M371.153 154.731H281.283V218.007H371.153V154.731Z" fill="#6D6D6D"/>
<path d="M331.706 154.876V218.369V154.876Z" fill="#6D6D6D"/>
<path d="M331.706 154.876V218.369" stroke="#111111" stroke-width="1.50374" stroke-linecap="round" stroke-linejoin="round"/>
<path d="M319.607 161.74H360.272" stroke="#111111" stroke-width="1.50374" stroke-linecap="round" stroke-linejoin="round"/>
<path d="M344.21 184.473H370.336" stroke="#111111" stroke-width="1.50374" stroke-linecap="round" stroke-linejoin="round"/>
<path d="M315.541 205.683H366.475" stroke="#111111" stroke-width="1.50374" stroke-linecap="round" stroke-linejoin="round"/>
<path d="M322.658 178.791H296.329" stroke="#111111" stroke-width="1.50374" stroke-linecap="round" stroke-linejoin="round"/>
<path d="M281.383 168.844H297.345" stroke="#111111" stroke-width="1.50374" stroke-linecap="round" stroke-linejoin="round"/>
<path d="M281.283 198.072H312.492" stroke="#111111" stroke-width="1.50374" stroke-linecap="round" stroke-linejoin="round"/>
<path d="M281.148 168.944C274.437 171.582 281.351 175.996 281.351 175.996C281.351 175.996 283.08 171 291.923 168.964L281.148 168.944Z" fill="#6D6D6D" stroke="#111111" stroke-width="1.50374" stroke-linecap="round" stroke-linejoin="round"/>
<path d="M371.415 184.369C378.124 187.006 371.21 191.423 371.21 191.423C371.21 191.423 369.483 186.427 360.638 184.389L371.415 184.369Z" fill="#6D6D6D" stroke="#111111" stroke-width="1.50374" stroke-linecap="round" stroke-linejoin="round"/>
<path d="M304.869 198.117C304.869 198.117 289.298 201.049 289.683 210.194C289.683 210.194 277.202 205.623 281.425 198.117H304.869Z" fill="#6D6D6D" stroke="#111111" stroke-width="1.50374" stroke-linecap="round" stroke-linejoin="round"/>
<path d="M-0.0732422 217.929H421.561" stroke="#111111" stroke-width="2.00498" stroke-linecap="round" stroke-linejoin="round"/>
</g>
<defs>
<clipPath id="clip0_714_10435">
<rect width="422.67" height="219.162" fill="white"/>
</clipPath>
</defs>
</svg>
