<svg width="205" height="54" viewBox="0 0 205 54" fill="none" xmlns="http://www.w3.org/2000/svg">
<path d="M55.7899 34.5472V19.915H59.1106V34.5472H55.7899ZM70.491 22.5279H73.6685V34.5472H71.0035L65.571 27.9209V34.5472H62.3935V22.5279H65.0585L70.491 29.1751V22.5279ZM79.0417 34.5472V25.099H75.3313V22.5279H85.9913V25.099H82.2808V34.5472H79.0417ZM90.856 32.0179H97.1495V34.5472H87.658V22.5279H96.924V25.0572H90.856V27.252H96.227V29.6559H90.856V32.0179ZM99.5099 34.5472V22.5279H102.749V31.9761H108.509V34.5472H99.5099ZM110.26 34.5472V22.5279H113.499V31.9761H119.259V34.5472H110.26ZM121.01 34.5472V22.5279H124.249V34.5472H121.01Z" fill="#AB1CAF"/>
<path d="M134.977 34.7981C130.528 34.7981 127.207 31.6417 127.207 27.2311C127.207 22.8205 130.528 19.6641 134.997 19.6641C137.478 19.6641 139.548 20.5839 140.901 22.2561L138.769 24.2628C137.806 23.1341 136.596 22.5488 135.161 22.5488C132.476 22.5488 130.569 24.4719 130.569 27.2311C130.569 29.9903 132.476 31.9134 135.161 31.9134C136.596 31.9134 137.806 31.3281 138.769 30.1784L140.901 32.1852C139.548 33.8783 137.478 34.7981 134.977 34.7981ZM142.941 34.5472V22.5279H146.18V31.9761H151.94V34.5472H142.941ZM153.691 34.5472V22.5279H156.93V34.5472H153.691ZM165.777 34.7772C162.005 34.7772 159.197 32.1643 159.197 28.548C159.197 24.9317 162.005 22.2979 165.777 22.2979C167.991 22.2979 169.652 22.9459 170.861 24.4928L168.77 26.4368C167.971 25.4543 167.007 24.9944 165.9 24.9944C163.912 24.9944 162.456 26.4159 162.456 28.548C162.456 30.6592 163.912 32.0806 165.9 32.0806C167.007 32.0806 167.971 31.6208 168.77 30.6383L170.861 32.5823C169.652 34.1292 167.971 34.7772 165.777 34.7772ZM180.947 34.5472L177.421 30.1157L176.088 31.5163V34.5472H172.89V22.5279H176.088V27.6492L180.885 22.5279H184.452L179.553 27.8791L184.719 34.5472H180.947ZM187.432 34.7144C186.264 34.7144 185.464 33.8574 185.464 32.8123C185.464 31.7462 186.264 30.9519 187.432 30.9519C188.58 30.9519 189.38 31.7462 189.38 32.8123C189.38 33.8574 188.58 34.7144 187.432 34.7144Z" fill="#18508C"/>
<path d="M31.8232 35.2737C29.8269 37.1254 27.2078 38.1218 24.5099 38.056C21.812 37.9902 19.2426 36.8671 17.3356 34.9201C13.2369 30.7409 13.2369 23.9481 17.3356 19.7688C21.3228 15.7032 27.6998 15.5896 31.8232 19.4153L28.4427 21.2713C27.3819 20.6024 26.1652 20.2345 24.9184 20.2057C23.6714 20.1768 22.4396 20.4881 21.3502 21.1072C20.2607 21.7263 19.3532 22.631 18.7214 23.7275C18.0897 24.824 17.7566 26.0727 17.7566 27.3445C17.7566 28.6162 18.0897 29.8649 18.7214 30.9614C19.3532 32.058 20.2607 32.9626 21.3502 33.5817C22.4396 34.2009 23.6714 34.5121 24.9183 34.4832C26.1652 34.4544 27.3819 34.0865 28.4427 33.4176L31.8232 35.2737ZM37.1477 14.7184C37.5191 15.0971 37.8782 15.4885 38.2126 15.9052L35.0426 17.6476C34.9312 17.5087 34.795 17.3698 34.6712 17.2436C29.1981 11.6628 20.3322 11.6628 14.8591 17.2436C9.38596 22.8243 9.38596 31.8646 14.8591 37.4453C20.3322 43.0261 29.1981 43.0261 34.6712 37.4453C34.795 37.3191 34.9312 37.1802 35.0426 37.0413L38.2126 38.7837C37.8782 39.2004 37.5191 39.5918 37.1477 39.9706C30.3125 46.9402 19.2177 46.9402 12.3826 39.9706C5.54737 33.001 5.54737 21.688 12.3826 14.7184C19.2177 7.7487 30.3125 7.7487 37.1477 14.7184ZM41.858 24.8571L44.966 18.5062L28.8687 27.3445L43.2214 36.1827L41.858 29.8318H48.8127V24.8319L41.858 24.8571Z" fill="#AB1CAF"/>
<path d="M24.8678 30.5573C26.554 30.5573 27.9209 29.1635 27.9209 27.4441C27.9209 25.7248 26.554 24.3309 24.8678 24.3309C23.1816 24.3309 21.8146 25.7248 21.8146 27.4441C21.8146 29.1635 23.1816 30.5573 24.8678 30.5573Z" fill="#18508C"/>
</svg>
